<svg id="Capa_1" data-name="Capa 1" xmlns="http://www.w3.org/2000/svg" viewBox="0 0 1711 492.3"><defs><style>.cls-1{fill:#212121;}</style></defs><title>waves3</title><path class="cls-1" d="M855.5,228.63a99.1,99.1,0,0,0-59.86,10.76l-46,24.52a99.11,99.11,0,0,1-91,1.19l-53.88-26.94a99.15,99.15,0,0,0-88.66,0l-55.34,27.68a99.15,99.15,0,0,1-88.66,0l-55.34-27.68a99.15,99.15,0,0,0-88.66,0l-55.34,27.68a99.15,99.15,0,0,1-88.66,0L28.83,238.16A99.24,99.24,0,0,0,.5,229V720h855Z" transform="translate(-0.5 -227.7)"/><path class="cls-1" d="M1711.5,228.63a99.1,99.1,0,0,0-59.86,10.76l-46,24.52a99.11,99.11,0,0,1-91,1.19l-53.88-26.94a99.15,99.15,0,0,0-88.66,0l-55.34,27.68a99.15,99.15,0,0,1-88.66,0l-55.34-27.68a99.15,99.15,0,0,0-88.66,0l-55.34,27.68a99.15,99.15,0,0,1-88.66,0l-55.34-27.68A99.24,99.24,0,0,0,856.5,229V720h855Z" transform="translate(-0.5 -227.7)"/><path class="cls-1" d="M841.5,228s18,0,27,4V720h-27Z" transform="translate(-0.5 -227.7)"/></svg>